<svg version="1.2" xmlns="http://www.w3.org/2000/svg" viewBox="0 0 800 800" width="128" height="128">
	<style>
		.s0 { fill: #ffffff } 
	</style>
	<g id="Layer 1">
		<path class="s0" d="m120 0c32.8 32.8 224.4 115.2 240 720 0 26 0 52.4 0 80h120c0-795.2-280-800-360-800zm560 120c-21.87 0.58-43.59 3.72-64.72 9.36-21.14 5.64-41.54 13.74-60.79 24.12-19.25 10.39-37.21 23-53.53 37.56-16.32 14.57-30.87 31-43.36 48.96q8.13 19.18 15.01 38.84 6.89 19.67 12.51 39.73 5.61 20.06 9.94 40.44 4.32 20.38 7.34 40.99c47.2-208.4 153.2-255.6 177.6-280zm-680 160c30.8 30.8 188.8 123.6 200 480 0 12.8 0 26.4 0 40h120c0-339.2-100-511.2-320-520zm800 0c-80 0-280 90-280 520h120c0-360 124.8-484.8 160-520z"/>
	</g>
</svg>